<?xml version="1.0" encoding="utf-8"?>
<!-- Generator: Adobe Illustrator 23.0.1, SVG Export Plug-In . SVG Version: 6.00 Build 0)  -->
<svg version="1.1" id="Layer_1" xmlns="http://www.w3.org/2000/svg" xmlns:xlink="http://www.w3.org/1999/xlink" x="0px" y="0px"
	 viewBox="0 0 1133.86 648" enable-background="new 0 0 1133.86 648" xml:space="preserve">
<g>
	<rect x="0" y="-212.17" fill="none" width="1133.86" height="1133.86"/>
	<g>
		<g>
			<path fill="#FFFFFF" d="M189.82,608.99l-6.04-13.32H155.9l-6.04,13.32h-9.62l29.6-63.64l29.6,63.64H189.82z M159.93,586.79h19.82
				l-9.91-21.85L159.93,586.79z"/>
			<path fill="#FFFFFF" d="M234.22,600.11h25.16v8.88h-34.04v-62.16h8.88V600.11z"/>
			<path fill="#FFFFFF" d="M351.89,546.83h9.62l-25.93,63.71l-16.99-42.85l-17,42.85l-25.93-63.71h9.62l16.27,40.96l17.03-42.44
				l17.03,42.44L351.89,546.83z"/>
			<path fill="#FFFFFF" d="M422.93,608.99l-6.04-13.32h-27.88l-6.04,13.32h-9.62l29.6-63.64l29.6,63.64H422.93z M393.04,586.79
				h19.82l-9.91-21.85L393.04,586.79z"/>
			<path fill="#FFFFFF" d="M486.95,546.83h9.99l-22.2,37v25.16h-8.88v-25.16l-22.2-37h9.99l16.65,28.47L486.95,546.83z"/>
			<path fill="#FFFFFF" d="M541.99,572.73c7.71,1.48,13.35,3.59,16.93,6.34c3.58,2.75,5.37,6.65,5.37,11.7
				c0,5.55-2.13,10.1-6.38,13.65c-4.26,3.55-9.96,5.32-17.11,5.32c-3.45,0-6.71-0.45-9.76-1.34s-5.58-2.02-7.59-3.37
				c-2-1.36-3.47-2.44-4.39-3.24c-0.93-0.8-1.63-1.51-2.13-2.13l4.44-7.95c5.49,6.11,12.03,9.16,19.61,9.16
				c4.62,0,8.19-0.86,10.68-2.59c2.5-1.72,3.75-4.1,3.75-7.12c0-4.68-4.72-7.86-14.15-9.53c-8.2-1.42-13.95-3.56-17.25-6.43
				c-3.3-2.87-4.95-6.55-4.95-11.06c0-5.24,1.97-9.56,5.92-12.95c3.95-3.39,9.44-5.09,16.47-5.09c8.08,0,14.77,2.47,20.07,7.4
				l-4.25,8.05c-4.5-4.38-9.84-6.57-16-6.57c-4.25,0-7.54,0.77-9.85,2.31c-2.31,1.54-3.47,3.7-3.47,6.47c0,2.34,1.08,4.18,3.24,5.51
				C533.32,570.59,536.93,571.74,541.99,572.73z"/>
			<path fill="#FFFFFF" d="M612.39,546.83c7.83,0,13.74,1.79,17.71,5.36c3.98,3.58,5.97,8.42,5.97,14.52
				c0,5.98-1.88,10.95-5.64,14.89c-3.76,3.95-8.85,5.92-15.26,5.92h-13.14v21.46h-8.88v-62.16H612.39z M615.25,578.65
				c3.51,0,6.38-0.94,8.6-2.82c2.22-1.88,3.33-4.73,3.33-8.56c0-3.82-1.2-6.71-3.61-8.65s-5.37-2.91-8.88-2.91h-12.67v22.94H615.25z
				"/>
			<path fill="#FFFFFF" d="M707.85,608.99h-10.36l-15.52-21.46h-9.64v21.46h-8.88v-62.16h19.24c7.83,0,13.74,1.79,17.71,5.36
				c3.98,3.58,5.97,8.42,5.97,14.52c0,4.87-1.28,9.11-3.84,12.72c-2.56,3.61-6.12,6.03-10.68,7.26L707.85,608.99z M672.33,555.71
				v22.94h13.23c3.51,0,6.38-0.94,8.6-2.82c2.22-1.88,3.33-4.73,3.33-8.56c0-3.88-1.1-6.78-3.28-8.7c-2.19-1.91-5.01-2.87-8.46-2.87
				H672.33z"/>
			<path fill="#FFFFFF" d="M771.49,555.71h-26.64v17.76h22.2v8.88h-22.2v17.76h26.64v8.88h-35.52v-62.16h35.52V555.71z"/>
			<path fill="#FFFFFF" d="M823.94,572.73c7.71,1.48,13.35,3.59,16.93,6.34c3.58,2.75,5.37,6.65,5.37,11.7
				c0,5.55-2.13,10.1-6.38,13.65c-4.26,3.55-9.96,5.32-17.11,5.32c-3.45,0-6.71-0.45-9.76-1.34s-5.58-2.02-7.59-3.37
				c-2-1.36-3.47-2.44-4.39-3.24c-0.93-0.8-1.63-1.51-2.13-2.13l4.44-7.95c5.49,6.11,12.03,9.16,19.61,9.16
				c4.62,0,8.19-0.86,10.68-2.59c2.5-1.72,3.75-4.1,3.75-7.12c0-4.68-4.72-7.86-14.15-9.53c-8.2-1.42-13.95-3.56-17.25-6.43
				c-3.3-2.87-4.95-6.55-4.95-11.06c0-5.24,1.97-9.56,5.92-12.95c3.95-3.39,9.44-5.09,16.47-5.09c8.08,0,14.77,2.47,20.07,7.4
				l-4.25,8.05c-4.5-4.38-9.84-6.57-16-6.57c-4.25,0-7.54,0.77-9.85,2.31c-2.31,1.54-3.47,3.7-3.47,6.47c0,2.34,1.08,4.18,3.24,5.51
				C815.28,570.59,818.89,571.74,823.94,572.73z"/>
			<path fill="#FFFFFF" d="M910.62,555.71h-26.64v17.76h22.2v8.88h-22.2v17.76h26.64v8.88H875.1v-62.16h35.52V555.71z"/>
			<path fill="#FFFFFF" d="M938,546.83h41.44v8.88h-16.28v53.28h-8.88v-53.28H938V546.83z"/>
		</g>
		<g>
			<circle opacity="0.6" fill="#ED1C24" cx="574.7" cy="334.13" r="72.83"/>
			<circle opacity="0.6" fill="#00AEEF" cx="520.57" cy="341.2" r="56.87"/>
			<circle opacity="0.6" fill="#FBB040" cx="553.97" cy="396.19" r="49.56"/>
			<g>
				<g>
					<path fill="#FFFFFF" d="M559.84,470.58c-66.18,0-120.03-53.84-120.03-120.03s53.85-120.03,120.03-120.03
						s120.03,53.85,120.03,120.03S626.03,470.58,559.84,470.58z M559.84,251.61c-54.56,0-98.94,44.39-98.94,98.94
						s44.39,98.94,98.94,98.94s98.94-44.38,98.94-98.94S614.4,251.61,559.84,251.61z"/>
				</g>
				<g>
					<path fill="#FFFFFF" d="M449.87,350.55c0-60.64,49.33-109.97,109.97-109.97c60.64,0,109.97,49.33,109.97,109.97
						c0,14.27-2.76,27.89-7.73,40.41H912L746.45,142.29l-47.92,70.05l-108.19-167l-92.22,136.51l-65.35-86.41L207.68,390.96H457.6
						C452.63,378.44,449.87,364.82,449.87,350.55z M749.19,173.67l136.19,204.57l-88.2-63.81l15.97-6.7l-92.46-92.39L749.19,173.67z
						 M587.29,85.72c0,0-12.88,82.84-11.71,82.45c1.18-0.39,50.15,11.36,50.15,11.36l-51.71,44.84c-4.66-0.52-9.39-0.81-14.18-0.81
						c-35.26,0-67.21,14.46-90.24,37.75L587.29,85.72z M379.69,241.04l-106.87,97.42l157.14-206.31l35.86,47.42l-83.39,103
						L379.69,241.04z"/>
				</g>
				<g>
					<path fill="#FFFFFF" d="M632.16,386.14c-0.94,0-1.9-0.17-2.83-0.53c-4.08-1.56-6.12-6.13-4.56-10.21
						c3.03-7.93,4.57-16.29,4.57-24.85c0-37.98-29.73-68.5-67.67-69.48c-4.37-0.11-7.81-3.74-7.7-8.11s3.82-7.72,8.11-7.7
						c46.59,1.2,83.08,38.67,83.08,85.29c0,10.51-1.89,20.77-5.62,30.51C638.34,384.21,635.34,386.14,632.16,386.14z"/>
				</g>
				<g>
					<path fill="#FFFFFF" d="M528.39,429.22c-1.07,0-2.17-0.22-3.21-0.69c-18.73-8.34-33.86-23.16-42.58-41.72
						c-1.86-3.95-0.16-8.66,3.79-10.52c3.95-1.86,8.66-0.16,10.52,3.79c7.11,15.13,19.44,27.2,34.7,34
						c3.99,1.78,5.78,6.45,4.01,10.44C534.3,427.47,531.41,429.22,528.39,429.22z"/>
				</g>
			</g>
		</g>
	</g>
</g>
</svg>
